# xmcd
#
# Track frame offsets:
#	150
#	15800
#	34050
#	54662
#	68387
#	79075
#	93275
#	107350
#	129000
#	147237
#	165200
#	175700
#	192250
#	202862
#	224400
#	237395
#	249000
#	261087
#	276887
#	291075
#
# Disc length: 4255 seconds
#
# Revision: 1
# Processed by: cddbd v1.5PL3 Copyright (c) Steve Scherf et al.
# Submitted via: audiograbber 1.81.01
#
DISCID=fa109d14
DTITLE=Axel Zwingenberger - Power House Boogie
DYEAR=1980
DGENRE=Blues
TTITLE0=Power House Boogie
TTITLE1=Blue Movie Bounce
TTITLE2=D and F Blues
TTITLE3=Blues On The Dark Side
TTITLE4=Celeste Call
TTITLE5=Barrelhouse Shuffle
TTITLE6=Almost Albert's Way
TTITLE7=Hamburg Hangover
TTITLE8=Dreaming In Boogie
TTITLE9=Low Down Bugle Drag
TTITLE10=Dance Of The Crazy Elves
TTITLE11=Boogie Demonstration
TTITLE12=Torpedo Jive
TTITLE13=Thinking Of Dagmar and Felix
TTITLE14=Harpsichord Flyer
TTITLE15=Harpsichord Blues
TTITLE16=Rocking The Harpsichord
TTITLE17=Hammerchord
TTITLE18=In The Shadow
TTITLE19=Edsel Run Boogie
EXTD=featuring Roy Dyke on drums
EXTT0=
EXTT1=
EXTT2=
EXTT3=
EXTT4=
EXTT5=
EXTT6=
EXTT7=
EXTT8=
EXTT9=
EXTT10=
EXTT11=
EXTT12=
EXTT13=
EXTT14=
EXTT15=
EXTT16=
EXTT17=
EXTT18=
EXTT19=
PLAYORDER=
